<svg width="25" height="24" viewBox="0 0 25 24" fill="none" xmlns="http://www.w3.org/2000/svg">
    <path d="M17.499 13.2004H14.999C14.999 13.8369 14.7356 14.4474 14.2668 14.8974C13.7979 15.3475 13.1621 15.6004 12.499 15.6004C11.836 15.6004 11.2001 15.3475 10.7313 14.8974C10.2624 14.4474 9.99902 13.8369 9.99902 13.2004H7.49902C7.49902 14.4734 8.02581 15.6943 8.96349 16.5945C9.90117 17.4947 11.1729 18.0004 12.499 18.0004C13.8251 18.0004 15.0969 17.4947 16.0346 16.5945C16.9722 15.6943 17.499 14.4734 17.499 13.2004ZM9.99902 9.60039C9.99902 9.91865 9.86733 10.2239 9.63291 10.4489C9.39849 10.674 9.08054 10.8004 8.74902 10.8004C8.4175 10.8004 8.09956 10.674 7.86514 10.4489C7.63072 10.2239 7.49902 9.91865 7.49902 9.60039C7.49902 9.28213 7.63072 8.97691 7.86514 8.75186C8.09956 8.52682 8.4175 8.40039 8.74902 8.40039C9.08054 8.40039 9.39849 8.52682 9.63291 8.75186C9.86733 8.97691 9.99902 9.28213 9.99902 9.60039ZM16.249 10.8004C16.5805 10.8004 16.8985 10.674 17.1329 10.4489C17.3673 10.2239 17.499 9.91865 17.499 9.60039C17.499 9.28213 17.3673 8.97691 17.1329 8.75186C16.8985 8.52682 16.5805 8.40039 16.249 8.40039C15.9175 8.40039 15.5996 8.52682 15.3651 8.75186C15.1307 8.97691 14.999 9.28213 14.999 9.60039C14.999 9.91865 15.1307 10.2239 15.3651 10.4489C15.5996 10.674 15.9175 10.8004 16.249 10.8004Z"
          fill="#4ECB71"/>
    <path fill-rule="evenodd" clip-rule="evenodd"
          d="M25 12C25 18.6276 19.4037 24 12.5 24C5.59625 24 0 18.6276 0 12C0 5.3724 5.59625 0 12.5 0C19.4037 0 25 5.3724 25 12ZM22.5 12C22.5 14.5461 21.4464 16.9879 19.5711 18.7882C17.6957 20.5886 15.1522 21.6 12.5 21.6C9.84783 21.6 7.3043 20.5886 5.42893 18.7882C3.55357 16.9879 2.5 14.5461 2.5 12C2.5 9.45392 3.55357 7.01212 5.42893 5.21178C7.3043 3.41143 9.84783 2.4 12.5 2.4C15.1522 2.4 17.6957 3.41143 19.5711 5.21178C21.4464 7.01212 22.5 9.45392 22.5 12Z"
          fill="#4ECB71"/>
</svg>