<svg width="10" height="15" viewBox="0 0 10 15" fill="none" xmlns="http://www.w3.org/2000/svg">
    <path d="M0 10.4796C0.178056 12.2657 1.82026 13.5332 4.32026 13.6971V15H5.57507V13.6971C8.30606 13.5054 10 12.1564 10 10.1614C10 8.45786 8.86068 7.47214 6.4437 6.91714L5.57507 6.71679V2.64321C6.92493 2.76107 7.83566 3.40821 8.06545 4.37464H9.83397C9.63426 2.66036 7.98123 1.43036 5.57507 1.29429V0H4.32026V1.32107C1.98749 1.5675 0.386189 2.89821 0.386189 4.7025C0.386189 6.26036 1.54836 7.36286 3.58758 7.82786L4.32146 8.00143V12.3204C2.93912 12.1382 1.98749 11.4632 1.7577 10.4796H0ZM4.07964 6.36964C2.82483 6.08786 2.15472 5.48571 2.15472 4.63821C2.15472 3.62679 3.00168 2.88 4.32026 2.67964V6.42429L4.07964 6.37071V6.36964ZM5.99374 8.37536C7.54211 8.72143 8.22185 9.29571 8.22185 10.2707C8.22185 11.4461 7.2281 12.2293 5.57507 12.3482V8.28214L5.99374 8.37429V8.37536Z"
          fill="#4ECB71"/>
</svg>
