<svg width="21" height="18" viewBox="0 0 21 18" fill="none" xmlns="http://www.w3.org/2000/svg">
    <path d="M0.912109 15.4807H18.5365V17.3467H0.912109V15.4807ZM18.5365 0.553284H0.912109V9.88295C0.912109 11.9448 2.88384 13.6148 5.31821 13.6148H11.9274C14.3617 13.6148 16.3335 11.9448 16.3335 9.88295V7.08405H18.5365C19.1208 7.08405 19.6811 6.88746 20.0943 6.53753C20.5074 6.1876 20.7395 5.71299 20.7395 5.21812V2.41922C20.7395 1.38362 19.7592 0.553284 18.5365 0.553284ZM14.1304 9.88295C14.1304 10.9092 13.139 11.7489 11.9274 11.7489H5.31821C4.10653 11.7489 3.11516 10.9092 3.11516 9.88295V2.41922H14.1304V9.88295ZM18.5365 5.21812H16.3335V2.41922H18.5365V5.21812Z"
          fill="#FFD233"/>
</svg>
