<svg width="21" height="17" viewBox="0 0 21 17" fill="none" xmlns="http://www.w3.org/2000/svg">
    <path d="M4.50033 0.583313C5.05286 0.583313 5.58276 0.750128 5.97346 1.04706C6.36416 1.34399 6.58366 1.74672 6.58366 2.16665C6.58366 2.58657 6.36416 2.9893 5.97346 3.28623C5.58276 3.58317 5.05286 3.74998 4.50033 3.74998C3.94779 3.74998 3.41789 3.58317 3.02719 3.28623C2.63649 2.9893 2.41699 2.58657 2.41699 2.16665C2.41699 1.74672 2.63649 1.34399 3.02719 1.04706C3.41789 0.750128 3.94779 0.583313 4.50033 0.583313ZM2.93783 4.54165H6.06283C6.61536 4.54165 7.14526 4.70846 7.53596 5.00539C7.92666 5.30233 8.14616 5.70505 8.14616 6.12498V10.4791H6.58366V16.4167H2.41699V10.4791H0.854492V6.12498C0.854492 5.70505 1.07399 5.30233 1.46469 5.00539C1.85539 4.70846 2.38529 4.54165 2.93783 4.54165Z"
          fill="#747474"/>
    <path d="M16.5003 0.583313C17.0529 0.583313 17.5828 0.750128 17.9735 1.04706C18.3642 1.34399 18.5837 1.74672 18.5837 2.16665C18.5837 2.58657 18.3642 2.9893 17.9735 3.28623C17.5828 3.58317 17.0529 3.74998 16.5003 3.74998C15.9478 3.74998 15.4179 3.58317 15.0272 3.28623C14.6365 2.9893 14.417 2.58657 14.417 2.16665C14.417 1.74672 14.6365 1.34399 15.0272 1.04706C15.4179 0.750128 15.9478 0.583313 16.5003 0.583313ZM14.9378 4.54165H18.0628C18.6154 4.54165 19.1453 4.70846 19.536 5.00539C19.9267 5.30233 20.1462 5.70505 20.1462 6.12498V10.4791H18.5837V16.4167H14.417V10.4791H12.8545V6.12498C12.8545 5.70505 13.074 5.30233 13.4647 5.00539C13.8554 4.70846 14.3853 4.54165 14.9378 4.54165Z"
          fill="#747474"/>
</svg>