<svg width="34" height="27" viewBox="0 0 34 27" fill="none" xmlns="http://www.w3.org/2000/svg">
    <rect x="0.5" y="0.5" width="32.2553" height="25.6189" rx="1.5" fill="#F8BB44" stroke="#F8BB44"/>
    <path d="M12.5 13.5C12.5003 12.1018 12.9262 10.7341 13.7255 9.56441C14.5248 8.39473 15.6628 7.47392 17 6.91481C15.8586 6.43639 14.6108 6.23798 13.3693 6.33753C12.1278 6.43707 10.9318 6.83142 9.88918 7.48496C8.84658 8.1385 7.99028 9.03064 7.39763 10.0808C6.80497 11.131 6.49463 12.3061 6.49463 13.5C6.49463 14.6939 6.80497 15.869 7.39763 16.9192C7.99028 17.9694 8.84658 18.8615 9.88918 19.515C10.9318 20.1686 12.1278 20.5629 13.3693 20.6625C14.6108 20.762 15.8586 20.5636 17 20.0852C15.6628 19.5261 14.5248 18.6053 13.7255 17.4356C12.9262 16.2659 12.5003 14.8982 12.5 13.5V13.5Z"
          fill="white"/>
    <path d="M16.9999 8.52264C16.0877 9.02674 15.3302 9.75215 14.8035 10.6259C14.2768 11.4997 13.9995 12.4909 13.9995 13.5C13.9995 14.5091 14.2768 15.5003 14.8035 16.3741C15.3302 17.2478 16.0877 17.9732 16.9999 18.4773C17.912 17.9732 18.6695 17.2478 19.1962 16.3741C19.7229 15.5003 20.0002 14.5091 20.0002 13.5C20.0002 12.4909 19.7229 11.4997 19.1962 10.6259C18.6695 9.75215 17.912 9.02674 16.9999 8.52264V8.52264Z"
          fill="white"/>
    <path d="M20 6.3125C18.9673 6.31226 17.9458 6.51735 17 6.91481C18.3375 7.47366 19.4757 8.3944 20.275 9.56414C21.0744 10.7339 21.5002 12.1017 21.5002 13.5C21.5002 14.8983 21.0744 16.2661 20.275 17.4359C19.4757 18.6056 18.3375 19.5263 17 20.0852C18.0218 20.5129 19.1302 20.7169 20.2446 20.6823C21.359 20.6477 22.4514 20.3754 23.4421 19.8852C24.4329 19.395 25.2971 18.6993 25.9719 17.8486C26.6466 16.998 27.115 16.0138 27.3428 14.9678C27.5707 13.9218 27.5523 12.8403 27.2889 11.802C27.0256 10.7637 26.524 9.79474 25.8206 8.96564C25.1173 8.13654 24.2298 7.46818 23.2229 7.00922C22.216 6.55026 21.115 6.31224 20 6.3125V6.3125Z"
          fill="white"/>
</svg>