<svg width="16" height="15" viewBox="0 0 16 15" fill="none" xmlns="http://www.w3.org/2000/svg">
    <path d="M14.4 5.17579V0H12.8V1.57895H3.2V0H1.6V5.17658C0.648 5.72368 0 6.73105 0 7.89474V11.0526C0 11.262 0.0842854 11.4628 0.234315 11.6109C0.384344 11.7589 0.587827 11.8421 0.8 11.8421H1.6V15H3.2V11.8421H12.8V15H14.4V11.8421H15.2C15.4122 11.8421 15.6157 11.7589 15.7657 11.6109C15.9157 11.4628 16 11.262 16 11.0526V7.89474C16 6.73105 15.3512 5.72368 14.4 5.17579ZM7.2 4.73684H3.2V3.15789H7.2V4.73684ZM12.8 4.73684H8.8V3.15789H12.8V4.73684Z"
          fill="#747474"/>
</svg>
