<svg width="16" height="15" viewBox="0 0 16 15" fill="none" xmlns="http://www.w3.org/2000/svg">
    <path d="M2.66667 10.6731C2.50844 10.6731 2.35377 10.6223 2.22221 10.5272C2.09065 10.4321 1.98811 10.297 1.92756 10.1389C1.86701 9.98073 1.85117 9.80673 1.88204 9.63886C1.91291 9.47099 1.9891 9.3168 2.10098 9.19577C2.21286 9.07475 2.35541 8.99233 2.51059 8.95894C2.66578 8.92554 2.82663 8.94268 2.97281 9.00818C3.11899 9.07368 3.24394 9.1846 3.33184 9.32691C3.41975 9.46922 3.46667 9.63653 3.46667 9.80769C3.46667 10.0372 3.38238 10.2573 3.23235 10.4196C3.08232 10.5819 2.87884 10.6731 2.66667 10.6731ZM2.93333 13.2692C2.77511 13.2692 2.62044 13.32 2.48888 13.4151C2.35732 13.5102 2.25478 13.6453 2.19423 13.8034C2.13368 13.9616 2.11784 14.1356 2.14871 14.3034C2.17957 14.4713 2.25577 14.6255 2.36765 14.7465C2.47953 14.8676 2.62208 14.95 2.77726 14.9834C2.93245 15.0168 3.0933 14.9996 3.23948 14.9341C3.38566 14.8686 3.5106 14.7577 3.59851 14.6154C3.68641 14.4731 3.73333 14.3058 3.73333 14.1346C3.73333 13.9051 3.64905 13.685 3.49902 13.5227C3.34899 13.3604 3.14551 13.2692 2.93333 13.2692ZM0.8 10.9615C0.641775 10.9615 0.487103 11.0123 0.355544 11.1074C0.223985 11.2025 0.121447 11.3376 0.0608967 11.4958C0.000346629 11.6539 -0.015496 11.8279 0.0153721 11.9957C0.0462403 12.1636 0.122433 12.3178 0.234315 12.4388C0.346197 12.5599 0.488743 12.6423 0.643928 12.6757C0.799113 12.7091 0.959966 12.6919 1.10615 12.6264C1.25233 12.5609 1.37727 12.45 1.46518 12.3077C1.55308 12.1654 1.6 11.9981 1.6 11.8269C1.6 11.5974 1.51572 11.3773 1.36569 11.215C1.21566 11.0527 1.01217 10.9615 0.8 10.9615ZM4.8 11.25C4.64178 11.25 4.4871 11.3008 4.35554 11.3958C4.22399 11.4909 4.12145 11.6261 4.0609 11.7842C4.00035 11.9423 3.9845 12.1163 4.01537 12.2842C4.04624 12.4521 4.12243 12.6063 4.23431 12.7273C4.3462 12.8483 4.48874 12.9307 4.64393 12.9641C4.79911 12.9975 4.95997 12.9804 5.10615 12.9149C5.25233 12.8494 5.37727 12.7385 5.46518 12.5962C5.55308 12.4539 5.6 12.2865 5.6 12.1154C5.6 11.8859 5.51572 11.6658 5.36569 11.5035C5.21566 11.3412 5.01217 11.25 4.8 11.25ZM15.4667 4.54867e-07H13.5533C13.4133 -0.000134472 13.2746 0.0297495 13.1453 0.0879257C13.016 0.146102 12.8986 0.231417 12.8 0.338943L10.9467 2.34375L2.53333 3.86538C2.33924 3.89795 2.15754 3.98894 2.00899 4.12794C1.86045 4.26695 1.75106 4.44836 1.69333 4.65144C1.6346 4.85221 1.62778 5.06654 1.67361 5.2712C1.71944 5.47587 1.81618 5.66306 1.95333 5.8125L8.49333 12.887C8.69136 13.1018 8.9596 13.2235 9.24 13.226C9.35098 13.225 9.46117 13.2055 9.56667 13.1683C9.75441 13.1058 9.92211 12.9875 10.0506 12.8268C10.1791 12.6661 10.2632 12.4696 10.2933 12.2596L11.7 3.15865L13.5533 1.15385H15.4667C15.6081 1.15385 15.7438 1.09306 15.8438 0.98487C15.9438 0.876675 16 0.729933 16 0.576923C16 0.423914 15.9438 0.277171 15.8438 0.168977C15.7438 0.0607833 15.6081 4.54867e-07 15.4667 4.54867e-07Z"
          fill="#747474"/>
</svg>
