<svg width="34" height="27" viewBox="0 0 34 27" fill="none" xmlns="http://www.w3.org/2000/svg">
    <rect x="0.5" y="0.5" width="32.2553" height="25.6189" rx="1.5" fill="#F8BB44" stroke="#F8BB44"/>
    <path d="M16 11.2222H14V5H12V11.2222H10V5H8V12.1111C8 13.5813 9.346 14.7778 11 14.7778H12V21H14V14.7778H15C16.654 14.7778 18 13.5813 18 12.1111V5H16V11.2222ZM23 5H22C20.841 5 20 6.12178 20 7.66667V14.7778H22V21H24V5.88889C24 5.65314 23.8946 5.42705 23.7071 5.26035C23.5196 5.09365 23.2652 5 23 5Z"
          fill="white"/>
</svg>