<svg width="14" height="14" viewBox="0 0 14 14" fill="none" xmlns="http://www.w3.org/2000/svg">
    <path d="M12.544 6.87608L6.49718 12.7803C6.36926 12.9052 6.37266 13.1181 6.50472 13.2534L6.98495 13.7456C7.11701 13.8809 7.32972 13.8894 7.45763 13.7645L13.5044 7.86031C13.6323 7.73542 13.6289 7.5225 13.4969 7.38717L13.0166 6.89505C12.8846 6.75972 12.6719 6.75118 12.544 6.87608ZM8.67194 1.04654C8.28675 1.42265 8.29689 2.05844 8.69457 2.46597C8.80113 2.57516 8.92343 2.65395 9.05567 2.70802L8.65461 4.40302C8.56883 4.76308 8.20154 4.96555 7.83806 4.85195L4.51339 3.81566C4.53686 3.52847 4.44052 3.22612 4.21541 2.99544C3.81772 2.5879 3.18255 2.5624 2.79736 2.93851C2.41217 3.31462 2.42231 3.95041 2.82 4.35795C3.04511 4.58863 3.34495 4.69228 3.63254 4.67575L4.58792 8.02547C4.69266 8.3917 4.47999 8.75553 4.11953 8.83119L2.4173 9.1899C2.36651 9.0593 2.29067 8.93214 2.18412 8.82295C1.78643 8.41541 1.15126 8.38992 0.766069 8.76603C0.380878 9.14214 0.389564 9.77935 0.787254 10.1869C1.18494 10.5944 1.82011 10.6199 2.2053 10.2438C2.24309 10.2069 2.27488 10.1639 2.30522 10.1222L6.24952 12.0611L11.8312 6.61104L9.98869 2.61988C10.031 2.59055 10.0748 2.5598 10.1126 2.5229C10.4978 2.14679 10.4877 1.511 10.09 1.10346C9.6923 0.695923 9.05713 0.670426 8.67194 1.04654Z"
          fill="white"/>
</svg>
