<svg width="41" height="41" viewBox="0 0 41 41" fill="none" xmlns="http://www.w3.org/2000/svg">
    <path d="M35.9583 4.83332H33.75V0.916656H29.3333V4.83332H11.6667V0.916656H7.25V4.83332H5.04167C2.59042 4.83332 0.647083 6.59582 0.647083 8.74999L0.625 36.1666C0.625 37.2054 1.09033 38.2016 1.91861 38.9361C2.7469 39.6707 3.87029 40.0833 5.04167 40.0833H35.9583C38.3875 40.0833 40.375 38.3208 40.375 36.1666V8.74999C40.375 6.59582 38.3875 4.83332 35.9583 4.83332ZM35.9583 36.1666H5.04167V16.5833H35.9583V36.1666ZM13.875 24.4167H9.45833V20.5H13.875V24.4167ZM22.7083 24.4167H18.2917V20.5H22.7083V24.4167ZM31.5417 24.4167H27.125V20.5H31.5417V24.4167ZM13.875 32.25H9.45833V28.3333H13.875V32.25ZM22.7083 32.25H18.2917V28.3333H22.7083V32.25ZM31.5417 32.25H27.125V28.3333H31.5417V32.25Z"
          fill="#F8BB44"/>
</svg>
