<svg width="19" height="14" viewBox="0 0 19 14" fill="none" xmlns="http://www.w3.org/2000/svg">
    <path d="M12.125 3.25H13.875M1.625 7H2.5H1.625ZM16.5 7C16.7321 7 16.9546 6.92098 17.1187 6.78033C17.2828 6.63968 17.375 6.44891 17.375 6.25V3.25C17.375 2.5 16.85 1 14.75 1C12.65 1 12.125 2.5 12.125 3.25L16.5 7ZM16.5 7V8.5C16.5 9.3535 15.9899 10.936 14.0981 11.3807L16.5 7ZM16.5 7H2.5H16.5ZM2.5 7V8.5C2.5 9.3535 3.01012 10.936 4.90187 11.3807L2.5 7ZM4.25 13L4.90187 11.3807L4.25 13ZM4.90187 11.3807C5.22562 11.4572 5.5905 11.5 6 11.5H13C13.3706 11.5028 13.74 11.4626 14.0981 11.3807H4.90187ZM14.75 13L14.0981 11.3807L14.75 13ZM12.125 3.25H10.375H12.125Z"
          stroke="#F8BB44" stroke-width="2" stroke-linecap="round" stroke-linejoin="round"/>
</svg>
