<svg width="17" height="14" viewBox="0 0 17 14" fill="none" xmlns="http://www.w3.org/2000/svg">
    <path d="M15.0312 6.01172C14.6569 5.83875 14.2525 5.74963 13.8438 5.75H3.15625C2.74749 5.74958 2.34311 5.83857 1.96875 6.01133C1.43965 6.25489 0.98941 6.65543 0.673074 7.164C0.356738 7.67256 0.188006 8.26712 0.1875 8.875V13.25C0.1875 13.4158 0.250056 13.5747 0.361405 13.6919C0.472755 13.8092 0.623778 13.875 0.78125 13.875C0.938722 13.875 1.08974 13.8092 1.20109 13.6919C1.31244 13.5747 1.375 13.4158 1.375 13.25V12.9375C1.37596 12.8549 1.40755 12.776 1.46302 12.7176C1.51848 12.6593 1.59344 12.626 1.67188 12.625H15.3281C15.4066 12.626 15.4815 12.6593 15.537 12.7176C15.5925 12.776 15.624 12.8549 15.625 12.9375V13.25C15.625 13.4158 15.6876 13.5747 15.7989 13.6919C15.9103 13.8092 16.0613 13.875 16.2188 13.875C16.3762 13.875 16.5272 13.8092 16.6386 13.6919C16.7499 13.5747 16.8125 13.4158 16.8125 13.25V8.875C16.8119 8.26719 16.6432 7.67271 16.3268 7.16422C16.0105 6.65574 15.5603 6.25525 15.0312 6.01172ZM12.9531 0.125H4.04688C3.49572 0.125 2.96714 0.355468 2.57742 0.765704C2.18769 1.17594 1.96875 1.73234 1.96875 2.3125V5.125C1.96877 5.14921 1.97413 5.17309 1.98441 5.19475C1.9947 5.21641 2.00962 5.23525 2.02801 5.2498C2.0464 5.26434 2.06775 5.27419 2.09038 5.27857C2.113 5.28294 2.13628 5.28172 2.15838 5.275C2.48251 5.17521 2.81854 5.1247 3.15625 5.125H3.31322C3.34986 5.12524 3.38529 5.11122 3.41269 5.08562C3.4401 5.06002 3.45754 5.02465 3.46166 4.98633C3.49405 4.68093 3.63216 4.3988 3.84964 4.1938C4.06711 3.9888 4.3487 3.87531 4.64062 3.875H6.71875C7.01087 3.87502 7.29273 3.98839 7.51044 4.19341C7.72814 4.39843 7.86642 4.68073 7.89883 4.98633C7.90295 5.02465 7.92039 5.06002 7.94779 5.08562C7.9752 5.11122 8.01063 5.12524 8.04727 5.125H8.95496C8.9916 5.12524 9.02703 5.11122 9.05443 5.08562C9.08184 5.06002 9.09928 5.02465 9.1034 4.98633C9.13576 4.68113 9.27372 4.39916 9.49096 4.19419C9.7082 3.98922 9.98952 3.8756 10.2812 3.875H12.3594C12.6515 3.87502 12.9334 3.98839 13.1511 4.19341C13.3688 4.39843 13.507 4.68073 13.5395 4.98633C13.5436 5.02465 13.561 5.06002 13.5884 5.08562C13.6158 5.11122 13.6513 5.12524 13.6879 5.125H13.8438C14.1815 5.12483 14.5175 5.17547 14.8416 5.27539C14.8638 5.28212 14.8871 5.28333 14.9097 5.27894C14.9324 5.27455 14.9537 5.26466 14.9721 5.25007C14.9905 5.23548 15.0055 5.21659 15.0157 5.19488C15.026 5.17317 15.0313 5.14925 15.0312 5.125V2.3125C15.0312 1.73234 14.8123 1.17594 14.4226 0.765704C14.0329 0.355468 13.5043 0.125 12.9531 0.125Z"
          fill="#F8BB44"/>
</svg>
