<svg width="9" height="17" viewBox="0 0 9 17" fill="none" xmlns="http://www.w3.org/2000/svg">
    <path d="M4.50033 0.583313C5.05286 0.583313 5.58276 0.750128 5.97346 1.04706C6.36416 1.34399 6.58366 1.74672 6.58366 2.16665C6.58366 2.58657 6.36416 2.9893 5.97346 3.28623C5.58276 3.58317 5.05286 3.74998 4.50033 3.74998C3.94779 3.74998 3.41789 3.58317 3.02719 3.28623C2.63649 2.9893 2.41699 2.58657 2.41699 2.16665C2.41699 1.74672 2.63649 1.34399 3.02719 1.04706C3.41789 0.750128 3.94779 0.583313 4.50033 0.583313ZM2.93783 4.54165H6.06283C6.61536 4.54165 7.14526 4.70846 7.53596 5.00539C7.92666 5.30233 8.14616 5.70505 8.14616 6.12498V10.4791H6.58366V16.4167H2.41699V10.4791H0.854492V6.12498C0.854492 5.70505 1.07399 5.30233 1.46469 5.00539C1.85539 4.70846 2.38529 4.54165 2.93783 4.54165Z"
          fill="#747474"/>
</svg>