<svg width="53" height="53" viewBox="0 0 53 53" fill="none" xmlns="http://www.w3.org/2000/svg">
    <g filter="url(#filter0_d_0_1)">
        <circle cx="25.5" cy="24.5" r="22.5" fill="#20A1FF"/>
    </g>
    <path d="M17.2654 26.9704L15 25.9631C17.5163 20.4691 22.1193 16.1723 27.8157 14L27.8604 14.1145L28.7066 16.2909L28.7 16.2926C23.6243 18.2435 19.5212 22.0751 17.2654 26.9704ZM35.42 35.081L18.9661 27.7602C21.0415 23.2552 24.8173 19.7292 29.4882 17.9343L29.4932 17.9327L30.8461 21.4026C30.7998 21.3993 30.76 21.3764 30.712 21.3764C30.4204 21.3747 30.1329 21.4446 29.8755 21.5798C29.618 21.7151 29.3987 21.9114 29.2372 22.1511C29.0757 22.3909 28.9771 22.6665 28.9503 22.9532C28.9234 23.24 28.9692 23.5288 29.0836 23.7937C29.1979 24.0586 29.3771 24.2913 29.6051 24.4708C29.8331 24.6503 30.1027 24.771 30.3897 24.822C30.6767 24.8731 30.9721 24.8528 31.2492 24.7632C31.5263 24.6735 31.7764 24.5172 31.9772 24.3083L35.9731 34.5659C36.002 34.6411 36.0078 34.7231 35.9896 34.8015C35.9715 34.8799 35.9302 34.9512 35.871 35.0065C35.8119 35.0617 35.7375 35.0985 35.6572 35.112C35.5769 35.1256 35.4944 35.1154 35.42 35.0827V35.081ZM27.256 26.2984C27.256 25.9996 27.1663 25.7075 26.9982 25.4591C26.8301 25.2107 26.5913 25.017 26.3118 24.9026C26.0323 24.7882 25.7247 24.7582 25.4279 24.8163C25.1311 24.8745 24.8585 25.0183 24.6444 25.2294C24.4304 25.4405 24.2845 25.7096 24.2253 26.0026C24.1661 26.2956 24.1961 26.5993 24.3117 26.8754C24.4272 27.1515 24.6231 27.3876 24.8745 27.5539C25.1259 27.7201 25.4216 27.809 25.7242 27.8093C25.9252 27.8093 26.1244 27.7702 26.3101 27.6941C26.4959 27.6181 26.6646 27.5066 26.8067 27.3662C26.9488 27.2257 27.0615 27.0589 27.1383 26.8754C27.2151 26.6919 27.2545 26.4953 27.2543 26.2967L27.256 26.2984ZM32.2521 29.6178C32.2521 29.3187 32.1623 29.0264 31.994 28.7777C31.8258 28.529 31.5866 28.3351 31.3068 28.2205C31.027 28.106 30.7191 28.076 30.422 28.1342C30.125 28.1924 29.852 28.3363 29.6377 28.5477C29.4234 28.7591 29.2774 29.0284 29.2181 29.3217C29.1588 29.615 29.1889 29.9191 29.3046 30.1955C29.4203 30.4719 29.6164 30.7083 29.8681 30.8747C30.1197 31.0411 30.4157 31.1301 30.7186 31.1304C30.9199 31.1304 31.1192 31.0912 31.3052 31.0151C31.4911 30.939 31.6601 30.8274 31.8023 30.6868C31.9446 30.5462 32.0574 30.3792 32.1343 30.1955C32.2112 30.0118 32.2506 29.815 32.2504 29.6162L32.2521 29.6178Z"
          fill="white"/>
    <defs>
        <filter id="filter0_d_0_1" x="0" y="0" width="53" height="53" color-interpolation-filters="sRGB">
            <feFlood flood-opacity="0" result="BackgroundImageFix"/>
            <feColorMatrix in="SourceAlpha" values="0 0 0 0 0 0 0 0 0 0 0 0 0 0 0 0 0 0 127 0" result="hardAlpha"/>
            <feOffset dx="1" dy="2"/>
            <feGaussianBlur stdDeviation="2"/>
            <feComposite in2="hardAlpha" operator="out"/>
            <feColorMatrix values="0 0 0 0 0.2875 0 0 0 0 0.2875 0 0 0 0 0.2875 0 0 0 0.25 0"/>
            <feBlend in2="BackgroundImageFix" result="effect1_dropShadow_0_1"/>
            <feBlend in="SourceGraphic" in2="effect1_dropShadow_0_1" result="shape"/>
        </filter>
    </defs>
</svg>