<svg width="34" height="27" viewBox="0 0 34 27" fill="none" xmlns="http://www.w3.org/2000/svg">
    <rect x="0.5" y="0.5" width="32.2553" height="25.6189" rx="1.5" fill="#F8BB44" stroke="#F8BB44"/>
    <path d="M17.3329 14.8571L17.3321 14.8584C17.2498 14.9947 17.1298 15.1092 16.9836 15.1892C16.8373 15.2693 16.6704 15.3118 16.5 15.3118C16.3296 15.3118 16.1627 15.2693 16.0165 15.1892C15.8702 15.1092 15.7502 14.9947 15.6679 14.8584L15.6679 14.8584L15.6671 14.8571C15.6002 14.7488 15.5116 14.6547 15.4068 14.5796C15.3021 14.5046 15.1831 14.4501 15.0568 14.4189C14.9305 14.3876 14.799 14.3802 14.6698 14.3969C14.5408 14.4136 14.4161 14.4541 14.303 14.5164C14.0752 14.6402 13.9059 14.8453 13.8354 15.0893C13.7647 15.3338 13.7999 15.5944 13.9321 15.8135L13.9325 15.8142C14.1932 16.2412 14.5683 16.5949 15.019 16.8404C15.4696 17.0858 15.9804 17.2148 16.5 17.2148C17.0196 17.2148 17.5304 17.0858 17.9811 16.8404C18.4318 16.5949 18.8068 16.2412 19.0675 15.8142L19.0679 15.8135C19.2001 15.5944 19.2353 15.3338 19.1646 15.0893C19.0941 14.8453 18.9248 14.6402 18.697 14.5164C18.5839 14.4541 18.4593 14.4136 18.3302 14.3969C18.201 14.3802 18.0695 14.3876 17.9432 14.4189C17.8169 14.4501 17.6979 14.5046 17.5932 14.5796C17.4884 14.6547 17.3998 14.7488 17.3329 14.8571ZM16.5 19.25L16.4994 19.25C14.9486 19.2563 13.4453 18.753 12.2485 17.8286C11.0518 16.9043 10.2372 15.6175 9.94254 14.1912C9.64792 12.765 9.89111 11.2864 10.6313 10.0097C11.3355 8.7951 12.4482 7.8349 13.794 7.27874C13.7949 7.32109 13.7969 7.36343 13.8 7.40571C13.8016 8.08298 14.0882 8.73021 14.5941 9.20628C15.101 9.68341 15.7868 9.95 16.5 9.95C16.7624 9.95 17.0157 9.85198 17.2038 9.67491C17.3923 9.49755 17.5 9.25499 17.5 9C17.5 8.74501 17.3923 8.50244 17.2038 8.32508C17.0157 8.14801 16.7624 8.05 16.5 8.05C16.3115 8.05 16.1324 7.97944 16.0018 7.85645C15.8714 7.73376 15.8 7.56935 15.8 7.4C15.8 7.23064 15.8714 7.06624 16.0018 6.94354C16.1324 6.82056 16.3115 6.75 16.5 6.75C18.2665 6.75 19.959 7.41055 21.2055 8.58375C22.4517 9.75665 23.15 11.3454 23.15 13C23.15 14.6546 22.4517 16.2433 21.2055 17.4163C19.959 18.5894 18.2665 19.25 16.5 19.25ZM14.95 11.4C14.95 11.21 14.8901 11.0251 14.7791 10.8687C14.6681 10.7124 14.5114 10.592 14.3298 10.5211C14.1482 10.4503 13.9488 10.4319 13.7566 10.4679C13.5643 10.5039 13.3865 10.593 13.2462 10.7251C13.1057 10.8573 13.0089 11.0269 12.9696 11.2129C12.9302 11.399 12.9505 11.5919 13.0274 11.7666C13.1042 11.9411 13.2337 12.0889 13.3979 12.1922C13.5621 12.2954 13.7542 12.35 13.95 12.35C14.2124 12.35 14.4657 12.252 14.6538 12.0749C14.8423 11.8976 14.95 11.655 14.95 11.4ZM19.05 10.45C18.8542 10.45 18.6621 10.5046 18.4979 10.6078C18.3337 10.7111 18.2042 10.8589 18.1274 11.0334C18.0505 11.2081 18.0302 11.401 18.0696 11.5871C18.1089 11.7731 18.2057 11.9427 18.3462 12.0749C18.4865 12.207 18.6643 12.2961 18.8566 12.3321C19.0488 12.3681 19.2482 12.3497 19.4298 12.2789C19.6114 12.208 19.7681 12.0876 19.8791 11.9313C19.9901 11.7749 20.05 11.59 20.05 11.4C20.05 11.145 19.9423 10.9024 19.7538 10.7251C19.5657 10.548 19.3124 10.45 19.05 10.45ZM16.5 4.85C14.7911 4.85 13.12 5.32689 11.6978 6.22126C10.2755 7.11569 9.16558 8.38791 8.50974 9.87811C7.85384 11.3684 7.68206 13.0089 8.01657 14.5917C8.35107 16.1744 9.17645 17.6269 10.3868 18.7661C11.597 19.9051 13.1379 20.6799 14.8141 20.9937C16.4903 21.3075 18.2278 21.1465 19.8073 20.5308C21.3868 19.915 22.7383 18.8717 23.6898 17.5314C24.6414 16.191 25.15 14.614 25.15 13C25.15 11.9284 24.9257 10.8676 24.4903 9.87811C24.0548 8.88867 23.4168 7.99026 22.6132 7.23392C21.8096 6.47759 20.8561 5.87808 19.8073 5.46921C18.7585 5.06034 17.6347 4.85 16.5 4.85Z"
          fill="white" stroke="white" stroke-width="0.3"/>
</svg>