<svg width="34" height="27" viewBox="0 0 34 27" fill="none" xmlns="http://www.w3.org/2000/svg">
    <rect x="0.5" y="0.5" width="32.2553" height="25.6189" rx="1.5" fill="#F8BB44" stroke="#F8BB44"/>
    <path d="M14.3223 8.97031C14.3839 8.85826 14.4811 8.76561 14.6013 8.70439C14.7215 8.64317 14.8592 8.6162 14.9965 8.62698C15.1337 8.63776 15.2643 8.68579 15.3712 8.76484C15.4781 8.84389 15.5564 8.95032 15.5959 9.07031L17.16 13.8109L18.449 11.4703C18.5061 11.3665 18.5939 11.2792 18.7025 11.2182C18.8111 11.1572 18.9362 11.1249 19.0639 11.1249C19.1916 11.1249 19.3167 11.1572 19.4253 11.2182C19.5339 11.2792 19.6217 11.3665 19.6788 11.4703L20.8622 13.625H25.0198C25.6388 12.4648 25.9529 11.1898 25.9372 9.90039C25.9101 7.47422 23.769 5.5 21.1642 5.5C19.0979 5.5 17.7267 6.65391 16.9997 7.49219C16.2744 6.65273 14.9015 5.5 12.8352 5.5C10.2304 5.5 8.08925 7.47422 8.06218 9.90039C8.05107 10.7382 8.18046 11.5726 8.44589 12.375H12.4497L14.3223 8.97031Z"
          fill="white"/>
    <path d="M19.8226 14.5297L19.0625 13.1477L17.6149 15.7797C17.5578 15.8835 17.47 15.9707 17.3614 16.0317C17.2528 16.0927 17.1277 16.125 17 16.125C16.9808 16.125 16.961 16.1242 16.9407 16.1227C16.8031 16.1123 16.6721 16.0645 16.5648 15.9855C16.4575 15.9064 16.3789 15.7999 16.3391 15.6797L14.7751 10.9391L13.486 13.2797C13.4292 13.3829 13.342 13.4698 13.2342 13.5308C13.1263 13.5918 13.002 13.6244 12.875 13.625H8.97988C9.38092 14.3878 9.91474 15.1385 10.5813 15.8773C11.3879 16.7711 12.8501 18.2 16.227 20.284C16.4547 20.4259 16.7243 20.5018 17.0004 20.5018C17.2765 20.5018 17.5461 20.4259 17.7739 20.284C21.1508 18.2 22.613 16.7711 23.4195 15.8773C23.71 15.5559 23.9825 15.2214 24.2359 14.875H20.4375C20.3098 14.875 20.1847 14.8427 20.0761 14.7817C19.9675 14.7207 19.8797 14.6335 19.8226 14.5297ZM25.9375 13.625H25.0201C24.7915 14.058 24.5295 14.4757 24.2359 14.875H25.9375C26.1198 14.875 26.2947 14.8091 26.4236 14.6919C26.5526 14.5747 26.625 14.4158 26.625 14.25C26.625 14.0842 26.5526 13.9253 26.4236 13.8081C26.2947 13.6908 26.1198 13.625 25.9375 13.625ZM8.0625 12.375C7.88016 12.375 7.7053 12.4408 7.57636 12.5581C7.44743 12.6753 7.375 12.8342 7.375 13C7.375 13.1658 7.44743 13.3247 7.57636 13.4419C7.7053 13.5591 7.88016 13.625 8.0625 13.625H8.97988C8.76727 13.2213 8.58886 12.8034 8.44621 12.375H8.0625Z"
          fill="white"/>
</svg>