<svg width="34" height="27" viewBox="0 0 34 27" fill="none" xmlns="http://www.w3.org/2000/svg">
    <rect x="0.5" y="0.5" width="32.2553" height="25.6189" rx="1.5" fill="#F8BB44" stroke="#F8BB44"/>
    <path d="M24.538 6.45689C24.932 5.97244 25 5 25 5H9C9 5 9.068 5.97244 9.462 6.45689L16 13.8889V19.2222H14C12 19.2222 12 21 12 21H22C22 21 22 19.2222 20 19.2222H18V13.8889L24.538 6.45689ZM16.4 9.44444C16.4 9.06725 16.5686 8.7055 16.8686 8.43878C17.1687 8.17206 17.5757 8.02222 18 8.02222C18.4243 8.02222 18.8313 8.17206 19.1314 8.43878C19.4314 8.7055 19.6 9.06725 19.6 9.44444C19.6 9.82164 19.4314 10.1834 19.1314 10.4501C18.8313 10.7168 18.4243 10.8667 18 10.8667C17.5757 10.8667 17.1687 10.7168 16.8686 10.4501C16.5686 10.1834 16.4 9.82164 16.4 9.44444Z"
          fill="white"/>
</svg>