<svg width="18" height="17" viewBox="0 0 18 17" fill="none" xmlns="http://www.w3.org/2000/svg">
    <path d="M2.04643 0.803133C5.05524 -1.39471 8.32122 1.28884 9.05413 5.46595C9.60703 5.46595 10.1471 5.61166 10.6357 5.87881C11.3043 5.15024 11.8958 4.15453 11.6643 3.0374C11.1243 0.426707 14.2231 -1.68613 17.1676 1.92027C19.495 4.76167 16.6533 7.84593 12.2172 8.53807C12.2172 9.06021 12.0758 9.58235 11.7801 10.0438C12.5516 10.6631 13.6059 11.2216 14.7889 11.003C17.5277 10.4931 19.7778 13.4073 15.959 16.2001C12.9502 18.398 9.68418 15.7144 8.95127 11.5373C8.39837 11.5373 7.85832 11.3795 7.38257 11.1123C6.71394 11.8409 6.10961 12.8487 6.34106 13.9659C6.8811 16.5644 3.78228 18.6894 0.837761 15.083C-1.50243 12.2295 1.35209 9.14521 5.78816 8.46521C5.78816 7.94307 5.95531 7.43308 6.23819 6.97165C5.4667 6.35237 4.41233 5.78166 3.21652 6.00023C0.477732 6.51023 -1.77245 3.59597 2.04643 0.803133Z"
          fill="#747474"/>
</svg>
