<svg width="34" height="27" viewBox="0 0 34 27" fill="none" xmlns="http://www.w3.org/2000/svg">
    <rect x="0.5" y="0.5" width="32.2553" height="25.6189" rx="1.5" fill="#F8BB44" stroke="#F8BB44"/>
    <path d="M20.9712 15.6371C19.7792 14.6739 18.2223 14.0909 16.517 14.0909C14.8117 14.0909 13.2548 14.6739 12.0606 15.6391C12.0277 15.6667 12.0075 15.7051 12.0043 15.7462C12.0011 15.7873 12.0152 15.828 12.0437 15.8597L12.8072 16.7047C12.8688 16.7717 12.9769 16.7795 13.0491 16.7224C13.9738 15.9661 15.1871 15.5091 16.517 15.5091C17.8469 15.5091 19.0601 15.9661 19.9849 16.7205C20.057 16.7776 20.1652 16.7697 20.2267 16.7027L20.9903 15.8577C21.0497 15.7927 21.0412 15.6942 20.9712 15.6371ZM23.4614 12.8776C21.58 11.422 19.1598 10.5455 16.517 10.5455C13.8741 10.5455 11.454 11.422 9.57051 12.8776C9.53605 12.9046 9.51448 12.9431 9.51051 12.9848C9.50654 13.0265 9.52048 13.068 9.5493 13.1002L10.3129 13.9452C10.3723 14.0121 10.4804 14.02 10.5504 13.9648C12.1688 12.7161 14.2496 11.9636 16.517 11.9636C18.7844 11.9636 20.8652 12.7161 22.4814 13.9648C22.5535 14.02 22.6596 14.0121 22.719 13.9452L23.4826 13.1002C23.542 13.0332 23.5335 12.9327 23.4614 12.8776V12.8776ZM25.9366 10.1397C23.3617 8.17788 20.0655 7 16.4746 7C12.9069 7 9.63202 8.16212 7.06341 10.1003C7.04576 10.1135 7.03113 10.1298 7.02037 10.1483C7.00962 10.1668 7.00296 10.1871 7.00078 10.208C6.99861 10.2289 7.00097 10.2501 7.00771 10.2701C7.01446 10.2902 7.02547 10.3088 7.04008 10.3248L7.80366 11.1698C7.86305 11.2348 7.9691 11.2447 8.0391 11.1915C10.3447 9.45621 13.2781 8.41818 16.4746 8.41818C19.6943 8.41818 22.6469 9.47197 24.9588 11.2289C25.0309 11.2841 25.137 11.2742 25.1964 11.2073L25.96 10.3623C26.0215 10.2953 26.0109 10.1948 25.9366 10.1397ZM15.1383 18.7394C15.1383 19.0737 15.2813 19.3944 15.5359 19.6308C15.7905 19.8672 16.1358 20 16.4958 20C16.8558 20 17.2011 19.8672 17.4557 19.6308C17.7102 19.3944 17.8533 19.0737 17.8533 18.7394C17.8533 18.4051 17.7102 18.0844 17.4557 17.848C17.2011 17.6116 16.8558 17.4788 16.4958 17.4788C16.1358 17.4788 15.7905 17.6116 15.5359 17.848C15.2813 18.0844 15.1383 18.4051 15.1383 18.7394Z"
          fill="white"/>
</svg>