<svg width="34" height="27" viewBox="0 0 34 27" fill="none" xmlns="http://www.w3.org/2000/svg">
    <rect x="0.5" y="0.5" width="32.2553" height="25.6189" rx="1.5" fill="#F8BB44" stroke="#F8BB44"/>
    <path d="M7 17.1285C8.68292 16.4601 10.3558 15.7916 12.0387 15.4975V8.21618C12.0387 7.50707 12.3572 6.827 12.9242 6.32559C13.4911 5.82417 14.2601 5.54248 15.0619 5.54248C16.382 5.54248 17.5006 6.2822 17.9138 7.32494H15.0619C14.7946 7.32494 14.5383 7.41884 14.3493 7.58598C14.1603 7.75312 14.0542 7.97981 14.0542 8.21618V9.10741H19.0928V8.21618C19.0928 7.50707 19.4114 6.827 19.9783 6.32559C20.5453 5.82417 21.3142 5.54248 22.116 5.54248C23.4362 5.54248 24.5548 6.2822 24.9679 7.32494H22.116C21.8488 7.32494 21.5925 7.41884 21.4035 7.58598C21.2145 7.75312 21.1083 7.97981 21.1083 8.21618V17.075C23.1238 16.7898 25.1393 15.346 27.1547 15.346V17.1285C24.9175 17.1285 22.6804 18.911 20.4331 18.911C18.1959 18.911 15.9588 17.1285 13.7216 17.1285C11.4743 17.1285 9.23717 18.0197 7 18.911V17.1285ZM19.0928 10.8899H14.0542V12.6723H19.0928V10.8899ZM19.0928 14.4548H14.0542V15.346C15.7371 15.4886 17.4099 16.5135 19.0928 16.9413V14.4548ZM7 20.6934C9.23717 19.8022 11.4743 18.911 13.7216 18.911C15.9588 18.911 18.1959 20.6934 20.4331 20.6934C22.6804 20.6934 24.9175 18.911 27.1547 18.911V20.6934C24.9175 20.6934 22.6804 22.4759 20.4331 22.4759C18.1959 22.4759 15.9588 20.6934 13.7216 20.6934C11.4743 20.6934 9.23717 21.5847 7 22.4759V20.6934Z"
          fill="white"/>
</svg>