<svg width="25" height="24" viewBox="0 0 25 24" fill="none" xmlns="http://www.w3.org/2000/svg">
    <path d="M8.75 10.7999C9.08152 10.7999 9.39946 10.6735 9.63388 10.4484C9.8683 10.2234 10 9.91816 10 9.5999C10 9.28164 9.8683 8.97642 9.63388 8.75137C9.39946 8.52633 9.08152 8.3999 8.75 8.3999C8.41848 8.3999 8.10054 8.52633 7.86612 8.75137C7.6317 8.97642 7.5 9.28164 7.5 9.5999C7.5 9.91816 7.6317 10.2234 7.86612 10.4484C8.10054 10.6735 8.41848 10.7999 8.75 10.7999ZM15 17.9999C15 17.3634 14.7366 16.7529 14.2678 16.3028C13.7989 15.8528 13.163 15.5999 12.5 15.5999C11.837 15.5999 11.2011 15.8528 10.7322 16.3028C10.2634 16.7529 10 17.3634 10 17.9999H7.5C7.5 16.7269 8.02678 15.506 8.96447 14.6058C9.90215 13.7056 11.1739 13.1999 12.5 13.1999C13.8261 13.1999 15.0979 13.7056 16.0355 14.6058C16.9732 15.506 17.5 16.7269 17.5 17.9999H15ZM17.5 9.5999C17.5 9.91816 17.3683 10.2234 17.1339 10.4484C16.8995 10.6735 16.5815 10.7999 16.25 10.7999C15.9185 10.7999 15.6005 10.6735 15.3661 10.4484C15.1317 10.2234 15 9.91816 15 9.5999C15 9.28164 15.1317 8.97642 15.3661 8.75137C15.6005 8.52633 15.9185 8.3999 16.25 8.3999C16.5815 8.3999 16.8995 8.52633 17.1339 8.75137C17.3683 8.97642 17.5 9.28164 17.5 9.5999Z"
          fill="#F24E1E"/>
    <path fill-rule="evenodd" clip-rule="evenodd"
          d="M25 12C25 18.6276 19.4037 24 12.5 24C5.59625 24 0 18.6276 0 12C0 5.3724 5.59625 0 12.5 0C19.4037 0 25 5.3724 25 12ZM22.5 12C22.5 14.5461 21.4464 16.9879 19.5711 18.7882C17.6957 20.5886 15.1522 21.6 12.5 21.6C9.84783 21.6 7.3043 20.5886 5.42893 18.7882C3.55357 16.9879 2.5 14.5461 2.5 12C2.5 9.45392 3.55357 7.01212 5.42893 5.21178C7.3043 3.41143 9.84783 2.4 12.5 2.4C15.1522 2.4 17.6957 3.41143 19.5711 5.21178C21.4464 7.01212 22.5 9.45392 22.5 12Z"
          fill="#F24E1E"/>
</svg>