<svg width="9" height="12" viewBox="0 0 9 12" fill="none" xmlns="http://www.w3.org/2000/svg">
    <path d="M4.125 11.0617C4.125 11.0617 8.25 7.13067 8.25 4.14815C8.25 3.04799 7.8154 1.99289 7.04182 1.21497C6.26823 0.437036 5.21902 0 4.125 0C3.03098 0 1.98177 0.437036 1.20818 1.21497C0.434597 1.99289 1.63021e-08 3.04799 0 4.14815C0 7.13067 4.125 11.0617 4.125 11.0617ZM4.125 6.22223C3.57799 6.22223 3.05339 6.00371 2.66659 5.61474C2.2798 5.22578 2.0625 4.69823 2.0625 4.14815C2.0625 3.59807 2.2798 3.07052 2.66659 2.68156C3.05339 2.29259 3.57799 2.07408 4.125 2.07408C4.67201 2.07408 5.19661 2.29259 5.58341 2.68156C5.9702 3.07052 6.1875 3.59807 6.1875 4.14815C6.1875 4.69823 5.9702 5.22578 5.58341 5.61474C5.19661 6.00371 4.67201 6.22223 4.125 6.22223Z"
          fill="#747474"/>
</svg>
