<svg width="34" height="27" viewBox="0 0 34 27" fill="none" xmlns="http://www.w3.org/2000/svg">
    <rect x="0.5" y="0.5" width="32.2553" height="25.6189" rx="1.5" fill="#F8BB44" stroke="#F8BB44"/>
    <path d="M17.45 9.25H14.6C14.348 9.25 14.1064 9.33955 13.9283 9.49896C13.7501 9.65836 13.65 9.87456 13.65 10.1V16.9C13.65 17.1254 13.7501 17.3416 13.9283 17.501C14.1064 17.6604 14.348 17.75 14.6 17.75C14.852 17.75 15.0936 17.6604 15.2718 17.501C15.4499 17.3416 15.55 17.1254 15.55 16.9V15.2H17.45C18.2059 15.2 18.9308 14.9313 19.4653 14.4531C19.9997 13.9749 20.3 13.3263 20.3 12.65V11.8C20.3 11.1237 19.9997 10.4751 19.4653 9.99688C18.9308 9.51866 18.2059 9.25 17.45 9.25ZM18.4 12.65C18.4 12.8754 18.2999 13.0916 18.1218 13.251C17.9436 13.4104 17.702 13.5 17.45 13.5H15.55V10.95H17.45C17.702 10.95 17.9436 11.0396 18.1218 11.199C18.2999 11.3584 18.4 11.5746 18.4 11.8V12.65ZM16.5 5C14.6211 5 12.7844 5.49852 11.2221 6.43251C9.65982 7.3665 8.44218 8.69402 7.72315 10.2472C7.00412 11.8004 6.81598 13.5094 7.18254 15.1583C7.5491 16.8071 8.45389 18.3217 9.78249 19.5104C11.1111 20.6992 12.8038 21.5087 14.6466 21.8367C16.4895 22.1646 18.3996 21.9963 20.1355 21.353C21.8714 20.7096 23.3551 19.6202 24.399 18.2223C25.4428 16.8245 26 15.1811 26 13.5C26 12.3838 25.7543 11.2785 25.2769 10.2472C24.7994 9.21592 24.0997 8.27889 23.2175 7.48959C22.3354 6.70029 21.2881 6.07419 20.1355 5.64702C18.9829 5.21986 17.7476 5 16.5 5ZM16.5 20.3C14.9969 20.3 13.5275 19.9012 12.2777 19.154C11.0279 18.4068 10.0537 17.3448 9.47852 16.1022C8.90329 14.8597 8.75279 13.4925 9.04604 12.1734C9.33928 10.8543 10.0631 9.64267 11.126 8.69167C12.1889 7.74068 13.5431 7.09304 15.0173 6.83066C16.4916 6.56828 18.0197 6.70294 19.4084 7.21762C20.7971 7.73229 21.9841 8.60387 22.8192 9.72212C23.6543 10.8404 24.1 12.1551 24.1 13.5C24.1 15.3035 23.2993 17.0331 21.874 18.3083C20.4487 19.5836 18.5156 20.3 16.5 20.3Z"
          fill="white"/>
</svg>