<svg width="34" height="27" viewBox="0 0 34 27" fill="none" xmlns="http://www.w3.org/2000/svg">
    <rect x="0.5" y="0.5" width="32.2553" height="25.6189" rx="1.5" fill="#F8BB44" stroke="#F8BB44"/>
    <path d="M23.4 11.2448V6H21.8V7.6H12.2V6H10.6V11.2456C9.648 11.8 9 12.8208 9 14V17.2C9 17.4122 9.08429 17.6157 9.23431 17.7657C9.38434 17.9157 9.58783 18 9.8 18H10.6V21.2H12.2V18H21.8V21.2H23.4V18H24.2C24.4122 18 24.6157 17.9157 24.7657 17.7657C24.9157 17.6157 25 17.4122 25 17.2V14C25 12.8208 24.3512 11.8 23.4 11.2448ZM16.2 10.8H12.2V9.2H16.2V10.8ZM21.8 10.8H17.8V9.2H21.8V10.8Z"
          fill="white"/>
</svg>
