<svg width="11" height="14" viewBox="0 0 11 14" fill="none" xmlns="http://www.w3.org/2000/svg">
    <path d="M3.72062 11.6767L4.75003 12.3989V7.63946C4.74946 7.44999 4.69585 7.26842 4.60076 7.1339L1.26547 2.3889H9.27429L5.94415 7.1339C5.84906 7.26842 5.79545 7.44999 5.79488 7.63946L5.77944 13.2222L6.80885 13.9445V7.93557L10.1956 3.11112C10.3311 2.91827 10.4085 2.65966 10.4118 2.3889V1.66668C10.4118 1.47513 10.3576 1.29144 10.261 1.15599C10.1645 1.02055 10.0336 0.944458 9.89709 0.944458H0.632382C0.495873 0.944458 0.364956 1.02055 0.26843 1.15599C0.171904 1.29144 0.117676 1.47513 0.117676 1.66668V2.3889C0.120969 2.65966 0.198374 2.91827 0.333852 3.11112L3.72062 7.93557V11.6767Z"
          fill="black"/>
</svg>
